<svg width="233" height="267" viewBox="0 0 233 267" fill="none" xmlns="http://www.w3.org/2000/svg">
<g filter="url(#filter0_d)">
<path d="M157.21 72.1975C156.633 70.8278 155.667 69.6572 154.432 68.8307C153.197 68.0042 151.746 67.5581 150.26 67.5475H11.5352C9.54105 67.5485 7.62892 68.3412 6.21887 69.7512C4.80883 71.1613 4.0162 73.0734 4.01514 75.0675V250.568C4.0162 252.562 4.80883 254.474 6.21887 255.884C7.62892 257.294 9.54105 258.086 11.5352 258.087H150.265C152.259 258.085 154.17 257.292 155.58 255.882C156.989 254.472 157.783 252.561 157.785 250.568V75.0675C157.788 74.0824 157.595 73.1066 157.215 72.1975H157.21Z" fill="#E6E6E6"/>
<path d="M145.914 248.234H16.2697C14.4016 248.232 12.9387 246.188 12.9387 243.581V80.7816C12.9406 78.1722 14.4045 76.1287 16.2697 76.1287H145.914C147.783 76.1312 149.246 78.1746 149.246 80.7816V243.581C149.244 246.19 147.78 248.234 145.914 248.234Z" fill="white"/>
<path d="M157.21 72.1975C156.633 70.8278 155.667 69.6572 154.432 68.8307C153.197 68.0042 151.746 67.5581 150.26 67.5475H11.5352C9.54105 67.5485 7.62892 68.3412 6.21887 69.7512C4.80883 71.1613 4.0162 73.0734 4.01514 75.0675V250.568C4.0162 252.562 4.80883 254.474 6.21887 255.884C7.62892 257.294 9.54105 258.086 11.5352 258.087H150.265C152.259 258.085 154.17 257.292 155.58 255.882C156.989 254.472 157.783 252.561 157.785 250.568V75.0675C157.788 74.0824 157.595 73.1066 157.215 72.1975H157.21ZM156.11 250.568C156.108 252.118 155.491 253.605 154.395 254.702C153.298 255.799 151.811 256.416 150.26 256.418H11.5352C9.98407 256.417 8.49651 255.801 7.39954 254.704C6.30256 253.608 5.68591 252.121 5.68512 250.569V75.0685C5.68724 73.5176 6.30425 72.0309 7.40088 70.9343C8.49751 69.8376 9.98429 69.2206 11.5352 69.2185H150.265C151.433 69.2229 152.574 69.5754 153.541 70.2308C154.508 70.8863 155.258 71.815 155.695 72.8985C155.78 73.1144 155.854 73.3347 155.915 73.5585C156.048 74.0509 156.115 74.5586 156.115 75.0685L156.11 250.568Z" fill="#48CAE4"/>
<path d="M128.26 108.983H86.4741C85.5875 108.983 84.7372 108.63 84.1103 108.003C83.4834 107.376 83.1311 106.526 83.1311 105.639C83.1311 104.753 83.4834 103.903 84.1103 103.276C84.7372 102.649 85.5875 102.297 86.4741 102.297H128.26C129.147 102.297 129.997 102.649 130.624 103.276C131.251 103.903 131.603 104.753 131.603 105.639C131.603 106.526 131.251 107.376 130.624 108.003C129.997 108.63 129.147 108.983 128.26 108.983V108.983Z" fill="#CAF0F8"/>
<path d="M128.26 126.533H86.4741C85.5875 126.533 84.7372 126.18 84.1103 125.553C83.4834 124.926 83.1311 124.076 83.1311 123.19C83.1311 122.303 83.4834 121.453 84.1103 120.826C84.7372 120.199 85.5875 119.847 86.4741 119.847H128.26C129.147 119.847 129.997 120.199 130.624 120.826C131.251 121.453 131.603 122.303 131.603 123.19C131.603 124.076 131.251 124.926 130.624 125.553C129.997 126.18 129.147 126.533 128.26 126.533V126.533Z" fill="#CAF0F8"/>
<path d="M65.0341 136.526H34.4971C33.5 136.524 32.544 136.128 31.8389 135.423C31.1338 134.718 30.7372 133.762 30.7361 132.765V96.7285C30.7372 95.7314 31.1338 94.7754 31.8389 94.0703C32.544 93.3652 33.5 92.9686 34.4971 92.9675H65.0341C66.0313 92.9686 66.9873 93.3652 67.6924 94.0703C68.3975 94.7754 68.794 95.7314 68.7951 96.7285V132.765C68.794 133.762 68.3975 134.718 67.6924 135.423C66.9873 136.128 66.0313 136.524 65.0341 136.526Z" fill="#CAF0F8"/>
<path d="M127.97 162.469H33.5341C32.6475 162.469 31.7972 162.116 31.1703 161.489C30.5434 160.862 30.1912 160.012 30.1912 159.126C30.1912 158.239 30.5434 157.389 31.1703 156.762C31.7972 156.135 32.6475 155.783 33.5341 155.783H127.97C128.857 155.783 129.707 156.135 130.334 156.762C130.961 157.389 131.313 158.239 131.313 159.126C131.313 160.012 130.961 160.862 130.334 161.489C129.707 162.116 128.857 162.469 127.97 162.469V162.469Z" fill="#CAF0F8"/>
<path d="M127.97 180.019H33.5341C32.6475 180.021 31.7962 179.671 31.1676 179.046C30.5389 178.421 30.1844 177.571 30.1819 176.685C30.1794 175.798 30.5293 174.947 31.1545 174.318C31.7797 173.69 32.629 173.335 33.5156 173.333H127.97C128.857 173.333 129.707 173.685 130.334 174.312C130.961 174.939 131.313 175.789 131.313 176.676C131.313 177.562 130.961 178.412 130.334 179.039C129.707 179.666 128.857 180.019 127.97 180.019V180.019Z" fill="#CAF0F8"/>
<path d="M127.97 197.569H33.5341C32.6475 197.569 31.7972 197.216 31.1703 196.589C30.5434 195.962 30.1912 195.112 30.1912 194.226C30.1912 193.339 30.5434 192.489 31.1703 191.862C31.7972 191.235 32.6475 190.883 33.5341 190.883H127.97C128.857 190.88 129.708 191.23 130.337 191.855C130.965 192.48 131.32 193.33 131.322 194.216C131.325 195.103 130.975 195.954 130.35 196.583C129.725 197.212 128.875 197.566 127.989 197.569H127.97Z" fill="#CAF0F8"/>
<path d="M127.97 215.119H33.5341C33.0951 215.12 32.6602 215.034 32.2542 214.868C31.8481 214.701 31.4788 214.456 31.1676 214.146C30.8563 213.836 30.609 213.469 30.4399 213.063C30.2708 212.658 30.1831 212.224 30.1819 211.785C30.1807 211.346 30.2659 210.911 30.4328 210.505C30.5997 210.099 30.8449 209.73 31.1545 209.418C31.4641 209.107 31.8319 208.86 32.237 208.691C32.6421 208.521 33.0766 208.434 33.5156 208.433H127.97C128.857 208.433 129.707 208.785 130.334 209.412C130.961 210.039 131.313 210.889 131.313 211.776C131.313 212.662 130.961 213.512 130.334 214.139C129.707 214.766 128.857 215.119 127.97 215.119V215.119Z" fill="#CAF0F8"/>
<path d="M127.97 232.669H33.5341C32.6475 232.671 31.7962 232.321 31.1676 231.696C30.5389 231.071 30.1844 230.221 30.1819 229.335C30.1794 228.448 30.5293 227.597 31.1545 226.968C31.7797 226.34 32.629 225.985 33.5156 225.983H127.97C128.857 225.983 129.707 226.335 130.334 226.962C130.961 227.589 131.313 228.439 131.313 229.326C131.313 230.212 130.961 231.062 130.334 231.689C129.707 232.316 128.857 232.669 127.97 232.669V232.669Z" fill="#CAF0F8"/>
<path d="M174.551 108.629C204.375 108.629 228.551 84.4519 228.551 54.6285C228.551 24.8052 204.375 0.62854 174.551 0.62854C144.728 0.62854 120.551 24.8052 120.551 54.6285C120.551 84.4519 144.728 108.629 174.551 108.629Z" fill="#48CAE4"/>
<path d="M183.056 56.4195V26.6285H167.714V56.4195H160.551L167.967 69.2645L175.385 82.1116L182.803 69.2645L190.22 56.4176L183.056 56.4195Z" fill="white"/>
</g>
<defs>
<filter id="filter0_d" x="0.0151367" y="0.62854" width="232.536" height="265.459" filterUnits="userSpaceOnUse" color-interpolation-filters="sRGB">
<feFlood flood-opacity="0" result="BackgroundImageFix"/>
<feColorMatrix in="SourceAlpha" type="matrix" values="0 0 0 0 0 0 0 0 0 0 0 0 0 0 0 0 0 0 127 0"/>
<feOffset dy="4"/>
<feGaussianBlur stdDeviation="2"/>
<feColorMatrix type="matrix" values="0 0 0 0 0 0 0 0 0 0 0 0 0 0 0 0 0 0 0.25 0"/>
<feBlend mode="normal" in2="BackgroundImageFix" result="effect1_dropShadow"/>
<feBlend mode="normal" in="SourceGraphic" in2="effect1_dropShadow" result="shape"/>
</filter>
</defs>
</svg>
